HIERARCHY
ROOT Hips
{
    OFFSET 0.000000 0.000000 0.000000
    CHANNELS 6 Xposition Yposition Zposition Zrotation Xrotation Yrotation
    JOINT Spine
    {
        OFFSET -0.000000 7.246840 0.000000
        CHANNELS 3 Zrotation Xrotation Yrotation
        JOINT Spine1
        {
            OFFSET -0.000000 20.289354 0.000000
            CHANNELS 3 Zrotation Xrotation Yrotation
            JOINT Neck
            {
                OFFSET -0.000000 20.206032 1.836912
                CHANNELS 3 Zrotation Xrotation Yrotation
                JOINT Head
                {
                    OFFSET -0.000000 12.372654 -1.767522
                    CHANNELS 3 Zrotation Xrotation Yrotation
                    End Site
                    {
                        OFFSET -0.000000 22.094025 0.000000
                    }
                }
            }
            JOINT LeftShoulder
            {
                OFFSET 3.465871 17.201674 -0.568930
                CHANNELS 3 Zrotation Xrotation Yrotation
                JOINT LeftArm
                {
                    OFFSET 14.070313 0.000000 0.000000
                    CHANNELS 3 Zrotation Xrotation Yrotation
                    JOINT LeftForeArm
                    {
                        OFFSET 26.549477 0.000000 0.000000
                        CHANNELS 3 Zrotation Xrotation Yrotation
                        JOINT LeftHand
                        {
                            OFFSET 18.880413 0.000000 0.000000
                            CHANNELS 3 Zrotation Xrotation Yrotation
                            End Site
                            {
                                OFFSET 13.256415 0.000000 0.000000
                            }
                        }
                    }
                }
            }
            JOINT RightShoulder
            {
                OFFSET -3.526370 17.201674 -0.568930
                CHANNELS 3 Zrotation Xrotation Yrotation
                JOINT RightArm
                {
                    OFFSET -14.070313 0.000000 0.000000
                    CHANNELS 3 Zrotation Xrotation Yrotation
                    JOINT RightForeArm
                    {
                        OFFSET -26.549477 0.000000 0.000000
                        CHANNELS 3 Zrotation Xrotation Yrotation
                        JOINT RightHand
                        {
                            OFFSET -18.880413 0.000000 0.000000
                            CHANNELS 3 Zrotation Xrotation Yrotation
                            End Site
                            {
                                OFFSET -13.256415 0.000000 0.000000
                            }
                        }
                    }
                }
            }
        }
    }
    JOINT LeftUpLeg
    {
        OFFSET 8.837609 0.000000 0.000000
        CHANNELS 3 Zrotation Xrotation Yrotation
        JOINT LeftLeg
        {
            OFFSET -0.000000 -41.345005 0.000000
            CHANNELS 3 Zrotation Xrotation Yrotation
            JOINT LeftFoot
            {
                OFFSET -0.000000 -35.500874 0.000000
                CHANNELS 3 Zrotation Xrotation Yrotation
                JOINT LeftToeBase
                {
                    OFFSET -0.000000 -5.744446 13.256415
                    CHANNELS 3 Zrotation Xrotation Yrotation
                    End Site
                    {
                        OFFSET -0.000000 0.000000 3.535044
                    }
                }
            }
        }
    }
    JOINT RightUpLeg
    {
        OFFSET -8.837609 0.000000 0.000000
        CHANNELS 3 Zrotation Xrotation Yrotation
        JOINT RightLeg
        {
            OFFSET -0.000000 -41.345005 0.000000
            CHANNELS 3 Zrotation Xrotation Yrotation
            JOINT RightFoot
            {
                OFFSET -0.000000 -35.500874 0.000000
                CHANNELS 3 Zrotation Xrotation Yrotation
                JOINT RightToeBase
                {
                    OFFSET -0.000000 -5.744446 13.256415
                    CHANNELS 3 Zrotation Xrotation Yrotation
                    End Site
                    {
                        OFFSET -0.000000 0.000000 3.535044
                    }
                }
            }
        }
    }
}
MOTION
Frames:    4
Frame Time:    0.010000
5.058599    81.946915    -53.961353    3.550956    1.853219    1.424987    -1.041425    -13.825628    -1.503583    2.173203    3.676520    -1.447135    -1.101620    34.193386    -1.377948    -2.500024    -12.971517    -2.261774    18.561493    1.235891    6.023446    -28.702259    13.072546    -16.328758    1.849811    -0.992985    -2.378833    -9.001765    -0.475853    -6.076781    -16.711521    -3.565761    12.163457    20.310837    6.114794    7.685810    -2.723739    -6.018443    3.052166    1.253407    -5.855716    8.308090    -1.752204    7.204645    -0.787047    -2.005863    -8.630195    -3.730933    0.203612    1.882061    -4.312775    -1.501615    -2.163911    2.129994    -9.209429    7.099182    3.606914    7.910657    -12.067243    1.371994    -1.673295    -0.573987    -9.804000    -0.449245    2.653977    0.783487    
5.048789    81.948181    -53.971420    3.551538    1.848541    1.405128    -1.046811    -13.814744    -1.490531    2.143635    3.661367    -1.432271    -1.067601    34.192024    -1.389844    -2.505364    -12.974976    -2.269503    18.576151    1.228909    6.020386    -28.713177    13.048601    -16.332954    1.789976    -1.081299    -2.295795    -8.747252    -0.564745    -6.280046    -16.700197    -3.544718    12.160834    20.282442    6.094223    7.693556    -2.721590    -6.033098    3.038108    1.225979    -5.871824    8.392907    -1.748514    7.200004    -0.796100    -2.000938    -8.626175    -3.655036    0.209860    1.886606    -4.372062    -1.501087    -2.156551    2.129147    -9.210276    7.086591    3.616204    7.921201    -12.057191    1.385603    -1.789409    -0.590333    -9.784372    -0.457234    2.801508    0.796220    
5.038752    81.948601    -53.977077    3.555350    1.845146    1.405627    -1.121771    -13.787925    -1.490598    2.296623    3.601468    -1.427167    -1.320264    34.159409    -1.353486    -2.318980    -12.914867    -2.228238    18.462223    1.231351    6.001881    -28.652052    13.090828    -16.337479    1.767059    -1.067042    -2.292969    -8.809484    -0.549576    -6.252888    -16.931553    -3.559671    12.142999    20.396441    6.136662    7.679394    -2.736935    -6.085366    3.036544    1.218661    -5.923842    8.434986    -1.740852    7.196542    -0.842889    -1.991046    -8.628920    -3.671223    0.209963    1.898816    -4.311058    -1.497903    -2.163470    2.124722    -9.204491    7.090271    3.619180    7.920834    -12.067698    1.362548    -1.715421    -0.563026    -9.794331    -0.470857    2.642853    0.821272    
5.029266    81.949196    -53.983456    3.557475    1.838210    1.395886    -1.141225    -13.789262    -1.485684    2.301972    3.603413    -1.420119    -1.332662    34.163906    -1.348072    -2.304712    -12.932945    -2.221617    18.436937    1.233980    5.990657    -28.613804    13.092370    -16.331894    1.764865    -1.069118    -2.307535    -8.873539    -0.551966    -6.202063    -16.952629    -3.539725    12.139771    20.382586    6.106985    7.688633    -2.749754    -6.149969    2.981290    1.222820    -5.987179    8.618364    -1.736858    7.200711    -0.829979    -2.008811    -8.623981    -3.588927    0.196597    1.893239    -4.390358    -1.494507    -2.165129    2.119929    -9.205968    7.088910    3.631396    7.922854    -12.066381    1.361131    -1.651336    -0.580438    -9.776582    -0.438891    2.678270    0.765241    
